<svg xmlns="http://www.w3.org/2000/svg" xmlns:xlink="http://www.w3.org/1999/xlink" version="1.1" x="0px" y="0px" viewBox="0 0 24 30" style="enable-background:new 0 0 24 24;" xml:space="preserve"><style type="text/css">
	.st0{display:none;}
</style><path d="M21.984,1.936H21.5V0.5C21.5,0.224,21.276,0,21,0s-0.5,0.224-0.5,0.5v1.436h-5V0.5C15.5,0.224,15.276,0,15,0  s-0.5,0.224-0.5,0.5v1.436h-5V0.5C9.5,0.224,9.276,0,9,0S8.5,0.224,8.5,0.5v1.436h-5V0.5C3.5,0.224,3.276,0,3,0S2.5,0.224,2.5,0.5  v1.436H2.016C0.904,1.936,0,2.84,0,3.951v18.033C0,23.096,0.904,24,2.016,24h19.969C23.096,24,24,23.096,24,21.984V3.951  C24,2.84,23.096,1.936,21.984,1.936z M23,21.984C23,22.544,22.544,23,21.984,23H2.016C1.456,23,1,22.544,1,21.984V3.951  c0-0.56,0.456-1.016,1.016-1.016H2.5V3.5C2.5,3.776,2.724,4,3,4s0.5-0.224,0.5-0.5V2.936h5V3.5C8.5,3.776,8.724,4,9,4  s0.5-0.224,0.5-0.5V2.936h5V3.5C14.5,3.776,14.724,4,15,4s0.5-0.224,0.5-0.5V2.936h5V3.5C20.5,3.776,20.724,4,21,4  s0.5-0.224,0.5-0.5V2.936h0.484c0.56,0,1.016,0.456,1.016,1.016V21.984z"/><path d="M19.151,7.631H16h-4H8H4.849C4.105,7.631,3.5,8.236,3.5,8.979v3.151v4v3.15c0,0.744,0.605,1.35,1.349,1.35H8h4h4h3.151  c0.744,0,1.349-0.605,1.349-1.35v-3.15v-4V8.979C20.5,8.236,19.895,7.631,19.151,7.631z M7.5,19.631H4.849  c-0.192,0-0.349-0.157-0.349-0.35v-2.65h3V19.631z M7.5,15.631h-3v-3h3V15.631z M7.5,11.631h-3V8.979  c0-0.192,0.157-0.349,0.349-0.349H7.5V11.631z M11.5,19.631h-3v-3h3V19.631z M11.5,15.631h-3v-3h3V15.631z M11.5,11.631h-3v-3h3  V11.631z M15.5,19.631h-3v-3h3V19.631z M15.5,15.631h-3v-3h3V15.631z M15.5,11.631h-3v-3h3V11.631z M19.5,19.281  c0,0.192-0.157,0.35-0.349,0.35H16.5v-3h3V19.281z M19.5,15.631h-3v-3h3V15.631z M19.5,11.631h-3v-3h2.651  c0.192,0,0.349,0.156,0.349,0.349C19.5,8.98,19.5,11.631,19.5,11.631z"/></svg>