<svg xmlns="http://www.w3.org/2000/svg" xmlns:xlink="http://www.w3.org/1999/xlink" viewBox="0 0 100 125" version="1.1" x="0px" y="0px"><title>Full - Rounded - Height</title><desc>Created with Sketch.</desc><g stroke="none" strokeWidth="1" fill="none" fill-rule="evenodd"><path d="M80.9540585,34.3180195 L93.6819805,47.0459415 C95.4393398,48.8033009 95.4393398,51.6525433 93.6819805,53.4099026 L80.9540585,66.1378246 C79.1966991,67.895184 76.3474567,67.895184 74.5900974,66.1378246 C72.8327381,64.3804653 72.8327381,61.5312229 74.5900974,59.7738636 L79.637,54.727 L47.5,54.7279221 C47.3310974,54.7279221 47.1643682,54.7186166 47.000297,54.7004905 C46.8363124,54.7185786 46.6692473,54.7279221 46.5,54.7279221 L20.363,54.7288441 L25.4099026,59.7738636 C27.1672619,61.5312229 27.1672619,64.3804653 25.4099026,66.1378246 C23.6525433,67.895184 20.8033009,67.895184 19.0459415,66.1378246 L6.31801948,53.4099026 C4.56066017,51.6525433 4.56066017,48.8033009 6.31801948,47.0459415 L19.0459415,34.3180195 C20.8033009,32.5606602 23.6525433,32.5606602 25.4099026,34.3180195 C27.1672619,36.0753788 27.1672619,38.9246212 25.4099026,40.6819805 L20.363,45.7288441 L46.5,45.7279221 C46.6689026,45.7279221 46.8356318,45.7372275 46.999703,45.7553536 C47.1636876,45.7372655 47.3307527,45.7279221 47.5,45.7279221 L79.637,45.727 L74.5900974,40.6819805 C72.8327381,38.9246212 72.8327381,36.0753788 74.5900974,34.3180195 C76.3474567,32.5606602 79.1966991,32.5606602 80.9540585,34.3180195 Z" fill="#000000" transform="translate(50.000000, 50.227922) rotate(90.000000) translate(-50.000000, -50.227922) "/></g></svg>