<svg xmlns="http://www.w3.org/2000/svg" data-name="Слой 1" viewBox="0 0 128 160" x="0px" y="0px"><title>ic_weight</title><path d="M110,128H18A18,18,0,0,1,0,110V18A18,18,0,0,1,18,0h92a18,18,0,0,1,18,18v92A18,18,0,0,1,110,128ZM18,4A14,14,0,0,0,4,18v92a14,14,0,0,0,14,14h92a14,14,0,0,0,14-14V18A14,14,0,0,0,110,4Z"/><path d="M104.23,28.84a54.65,54.65,0,0,0-80.46,0,2,2,0,0,0-.07,2.63l16,19.33a2,2,0,1,0,3.08-2.54l-14.83-18A50.8,50.8,0,0,1,62,15.23V20a2,2,0,0,0,4,0V15.23a50.8,50.8,0,0,1,34.08,15.06L85.15,48.38a2,2,0,1,0,3.08,2.55L104.3,31.47A2,2,0,0,0,104.23,28.84Z"/><path d="M72.61,47.72l-6.8-14.57a2,2,0,0,0-3.62,0l-6.8,14.57A26,26,0,0,0,45,54.5a2,2,0,0,0,2.92,2.74,22.08,22.08,0,0,1,32.2,0A2,2,0,0,0,83,54.5,26,26,0,0,0,72.61,47.72Zm-12.25-1.2L64,38.73l3.64,7.79a26.62,26.62,0,0,0-7.28,0Z"/></svg>